<?xml version="1.0" standalone="no"?>
<!DOCTYPE svg PUBLIC "-//W3C//DTD SVG 20010904//EN"
 "http://www.w3.org/TR/2001/REC-SVG-20010904/DTD/svg10.dtd">
<svg version="1.0" xmlns="http://www.w3.org/2000/svg"
 width="500.000000pt" height="500.000000pt" viewBox="0 0 500.000000 500.000000"
 preserveAspectRatio="xMidYMid meet">
<metadata>
Created by potrace 1.11, written by Peter Selinger 2001-2013
</metadata>
<g transform="translate(0.000000,500.000000) scale(0.100000,-0.100000)"
fill="#000000" stroke="none">
<path d="M0 2505 l0 -2495 2495 0 2495 0 0 2495 0 2495 -2495 0 -2495 0 0
-2495z m4670 -5 l0 -2170 -2170 0 -2170 0 0 2170 0 2170 2170 0 2170 0 0
-2170z"/>
<path d="M1610 2475 l0 -1495 210 0 210 0 0 569 0 570 468 4 c538 4 553 6 739
98 245 121 387 335 433 654 25 177 4 455 -46 605 -42 123 -81 188 -169 275
-121 121 -249 177 -470 204 -57 7 -325 11 -732 11 l-643 0 0 -1495z m1465
1083 c64 -34 108 -80 137 -143 22 -49 23 -58 23 -360 l0 -310 -29 -63 c-34
-74 -104 -142 -174 -168 -43 -17 -92 -19 -524 -22 l-478 -3 0 551 0 551 498
-3 497 -3 50 -27z"/>
</g>
</svg>
